<svg version="1.1" id="Layer_1" xmlns="http://www.w3.org/2000/svg" xmlns:xlink="http://www.w3.org/1999/xlink" x="0px" y="0px"
	 width="100%" viewBox="0 0 64 64" enable-background="new 0 0 64 64" xml:space="preserve">
<path fill="#19A1D5" opacity="1.000000" stroke="none" 
	d="
M47.000000,1.000000 
	C52.884830,1.000000 58.769665,1.000000 65.000000,1.000000 
	C65.000000,3.325504 65.000000,5.668018 64.665726,8.571205 
	C61.172092,13.155386 58.012726,17.178894 54.543938,21.320599 
	C52.228649,23.700245 50.222782,25.961699 48.132290,28.318558 
	C46.894093,25.634981 45.893406,23.466167 44.933350,20.877308 
	C45.649319,13.971506 46.324657,7.485753 47.000000,1.000000 
z"/>
<path fill="#0D80B3" opacity="1.000000" stroke="none" 
	d="
M13.000000,65.000000 
	C9.500000,65.000000 5.995838,65.083908 2.504430,64.910706 
	C1.972667,64.884331 1.500001,63.666664 1.396373,62.495243 
	C10.565396,59.945129 14.959426,53.178082 19.417698,46.062763 
	C21.222782,46.063389 22.611948,46.033066 24.295469,46.062035 
	C24.883276,45.700752 25.176729,45.280174 25.542835,44.447723 
	C25.717278,42.364170 25.819069,40.692493 26.264393,38.952393 
	C27.965654,38.612507 29.323383,38.341038 30.739792,38.434406 
	C30.878075,39.531757 30.957682,40.264271 30.945866,41.408279 
	C30.868002,43.223404 30.881561,44.627033 30.618717,46.203289 
	C27.630541,49.015083 24.801580,51.545937 22.236710,54.320889 
	C19.043856,57.775269 16.068996,61.431141 13.000000,65.000000 
z"/>
<path fill="#204C7E" opacity="1.000000" stroke="none" 
	d="
M65.000000,47.000000 
	C65.000000,52.927876 65.000000,58.855755 65.000000,65.000000 
	C58.981300,65.000000 52.960026,65.000000 46.529186,64.661552 
	C51.323490,58.850552 56.482426,53.333649 61.786205,47.959694 
	C62.474735,47.262058 63.910408,47.301807 65.000000,47.000000 
z"/>
<path fill="#95C8E9" opacity="1.000000" stroke="none" 
	d="
M1.000000,21.000000 
	C1.000000,18.629442 1.000000,16.258884 1.308106,13.618309 
	C7.688146,17.394646 11.912883,16.742620 15.219073,10.264375 
	C16.523228,7.708980 15.800034,4.118921 16.000000,1.000000 
	C17.714357,1.000000 19.428717,1.000000 21.561813,1.456285 
	C22.750711,9.390928 21.399227,16.021858 14.632842,20.544062 
	C14.295052,20.769819 14.238961,21.417074 13.599859,21.877607 
	C11.031782,21.919270 8.915549,21.951389 6.427787,21.987675 
	C4.370838,21.661228 2.685419,21.330614 1.000000,21.000000 
z"/>
<path fill="#0A89BE" opacity="1.000000" stroke="none" 
	d="
M19.001785,46.031811 
	C14.959426,53.178082 10.565396,59.945129 1.396372,61.995243 
	C1.000000,58.638714 1.000000,55.277424 1.364968,51.441963 
	C3.478804,49.350323 5.227673,47.732861 7.241058,46.121536 
	C7.670464,46.064899 7.835351,46.002132 8.415435,46.020920 
	C12.000494,46.582771 14.323479,45.979504 14.425070,42.027794 
	C16.113567,42.033012 17.411963,42.045353 18.778156,42.450718 
	C18.897896,43.906433 18.949841,44.969120 19.001785,46.031811 
z"/>
<path fill="#1F5789" opacity="1.000000" stroke="none" 
	d="
M65.000000,46.555832 
	C63.910408,47.301807 62.474735,47.262058 61.786205,47.959694 
	C56.482426,53.333649 51.323490,58.850552 46.059811,64.661552 
	C43.629444,65.000000 41.258884,65.000000 38.503937,64.661560 
	C39.914196,62.214413 41.669518,60.070625 43.511967,58.004528 
	C46.990063,54.104240 50.518295,50.248657 54.398895,46.300468 
	C56.547249,45.741802 59.985283,47.516998 59.092995,42.867214 
	C61.176666,41.373924 63.088333,40.186962 65.000000,39.000000 
	C65.000000,41.370556 65.000000,43.741116 65.000000,46.555832 
z"/>
<path fill="#186A9D" opacity="1.000000" stroke="none" 
	d="
M32.000000,65.000000 
	C30.285625,65.000000 28.571249,65.000000 26.488400,64.661606 
	C29.789602,60.339268 33.547436,56.431557 37.088329,52.336266 
	C38.643238,50.537899 39.756001,48.357246 41.027222,46.244553 
	C40.984924,46.138935 40.957203,45.913067 41.322910,46.004150 
	C43.149197,44.405426 44.609776,42.715622 46.305435,40.789654 
	C47.009022,39.798691 47.477531,39.043892 48.231415,38.519775 
	C49.386971,40.149445 50.257149,41.548431 51.111546,43.210182 
	C51.142780,43.818886 51.189796,44.164822 51.030525,44.808270 
	C50.327381,45.534111 49.785755,45.920609 49.340439,46.397110 
	C43.552330,52.590630 37.777885,58.796925 32.000000,65.000000 
z"/>
<path fill="#C2DEF1" opacity="1.000000" stroke="none" 
	d="
M15.527336,1.000000 
	C15.800034,4.118921 16.523228,7.708980 15.219073,10.264375 
	C11.912883,16.742620 7.688146,17.394646 1.308106,13.174145 
	C1.000000,9.067218 1.000000,5.134436 1.000000,1.000000 
	C5.683653,1.000000 10.369163,1.000000 15.527336,1.000000 
M11.100004,8.763199 
	C12.243695,5.805555 11.181813,3.538559 8.212557,3.247648 
	C6.765308,3.105854 4.772148,4.683984 3.716094,6.026388 
	C3.188015,6.697655 4.053621,9.664231 4.557045,9.736985 
	C6.555302,10.025768 8.659337,9.582605 11.100004,8.763199 
z"/>
<path fill="#0D76A9" opacity="1.000000" stroke="none" 
	d="
M13.444163,65.000000 
	C16.068996,61.431141 19.043856,57.775269 22.236710,54.320889 
	C24.801580,51.545937 27.630541,49.015083 31.031462,46.246090 
	C32.819683,46.206097 33.918758,46.295925 34.993996,46.730068 
	C33.492081,49.370422 32.194622,51.811180 30.496336,53.930779 
	C27.458250,57.722565 24.178644,61.320835 21.000000,65.000000 
	C18.629442,65.000000 16.258884,65.000000 13.444163,65.000000 
z"/>
<path fill="#21A4D9" opacity="1.000000" stroke="none" 
	d="
M46.571533,1.000000 
	C46.324657,7.485753 45.649319,13.971506 44.507797,20.887653 
	C42.053379,21.290586 40.065140,21.263128 38.113777,20.844650 
	C39.100437,13.969088 40.050217,7.484544 41.000000,1.000000 
	C42.714359,1.000000 44.428715,1.000000 46.571533,1.000000 
z"/>
<path fill="#58B0DF" opacity="1.000000" stroke="none" 
	d="
M26.000000,1.000000 
	C27.388998,1.000000 28.777994,1.000000 30.654970,1.401477 
	C31.173300,5.163808 31.634613,8.593281 31.113468,11.866323 
	C30.586502,15.175916 29.086597,18.330595 27.756210,21.751190 
	C25.210472,24.705091 23.649208,22.520176 22.031414,20.768082 
	C25.439095,14.345923 27.620731,8.055850 26.000000,1.000000 
z"/>
<path fill="#33A9DB" opacity="1.000000" stroke="none" 
	d="
M40.571533,1.000000 
	C40.050217,7.484544 39.100437,13.969088 38.106178,21.289507 
	C38.393497,22.942148 38.725296,23.758917 38.510788,24.494820 
	C37.603531,24.344339 37.242580,24.274723 36.706997,24.112652 
	C36.532360,24.020197 36.142860,23.953341 36.043175,23.608776 
	C34.969711,22.733385 33.995941,22.202557 33.023304,21.271645 
	C33.346008,18.790148 33.777298,16.718655 33.966587,14.625278 
	C34.376732,10.089457 34.663044,5.542439 35.000000,1.000000 
	C36.714359,1.000000 38.428715,1.000000 40.571533,1.000000 
z"/>
<path fill="#1D6395" opacity="1.000000" stroke="none" 
	d="
M32.428463,65.000000 
	C37.777885,58.796925 43.552330,52.590630 49.340439,46.397110 
	C49.785755,45.920609 50.327381,45.534111 51.274651,45.049877 
	C52.491940,45.454147 53.258816,45.914318 54.025688,46.374489 
	C50.518295,50.248657 46.990063,54.104240 43.511967,58.004528 
	C41.669518,60.070625 39.914196,62.214413 38.059769,64.661560 
	C36.285641,65.000000 34.571285,65.000000 32.428463,65.000000 
z"/>
<path fill="#116FA2" opacity="1.000000" stroke="none" 
	d="
M21.416664,65.000000 
	C24.178644,61.320835 27.458250,57.722565 30.496336,53.930779 
	C32.194622,51.811180 33.492081,49.370422 35.314934,46.631290 
	C36.100990,46.112904 36.542274,46.037609 37.319099,46.053253 
	C38.108746,46.074142 38.562847,46.004101 39.359798,46.003891 
	C40.158272,46.165871 40.613899,46.258022 41.069523,46.350170 
	C39.756001,48.357246 38.643238,50.537899 37.088329,52.336266 
	C33.547436,56.431557 29.789602,60.339268 26.059963,64.661606 
	C24.611111,65.000000 23.222221,65.000000 21.416664,65.000000 
z"/>
<path fill="#6EB7E2" opacity="1.000000" stroke="none" 
	d="
M25.600004,1.000000 
	C27.620731,8.055850 25.439095,14.345923 21.620644,20.767921 
	C18.782988,21.378979 16.417345,21.623522 14.051702,21.868067 
	C14.238961,21.417074 14.295052,20.769819 14.632842,20.544062 
	C21.399227,16.021858 22.750711,9.390928 21.990276,1.456285 
	C23.066669,1.000000 24.133339,1.000000 25.600004,1.000000 
z"/>
<path fill="#45ABDC" opacity="1.000000" stroke="none" 
	d="
M34.600006,1.000000 
	C34.663044,5.542439 34.376732,10.089457 33.966587,14.625278 
	C33.777298,16.718655 33.346008,18.790148 32.616310,21.390375 
	C30.809752,21.790503 29.411322,21.671818 28.012890,21.553133 
	C29.086597,18.330595 30.586502,15.175916 31.113468,11.866323 
	C31.634613,8.593281 31.173300,5.163808 31.071474,1.401477 
	C32.066669,1.000000 33.133339,1.000000 34.600006,1.000000 
z"/>
<path fill="#1774A6" opacity="1.000000" stroke="none" 
	d="
M65.000000,20.000000 
	C65.000000,21.714375 65.000000,23.428751 64.658463,25.631073 
	C60.743092,28.446997 57.169258,30.774969 53.476318,32.830345 
	C53.966648,31.396235 54.576084,30.234722 55.442051,28.853321 
	C56.673431,26.160879 57.648281,23.688328 59.028427,21.155487 
	C61.289150,20.730133 63.144573,20.365067 65.000000,20.000000 
z"/>
<path fill="#16699C" opacity="1.000000" stroke="none" 
	d="
M53.595425,33.102943 
	C57.169258,30.774969 60.743092,28.446997 64.658463,26.059511 
	C65.000000,27.714357 65.000000,29.428717 64.661575,31.631519 
	C61.563263,34.080620 58.803383,36.041275 55.837830,37.859745 
	C55.392937,37.482117 55.191505,37.217869 55.010223,36.592590 
	C54.622311,35.492393 54.252029,34.724426 53.726181,33.771255 
	C53.570610,33.586052 53.595425,33.102940 53.595425,33.102943 
z"/>
<path fill="#0C7BAE" opacity="1.000000" stroke="none" 
	d="
M65.000000,19.541931 
	C63.144573,20.365067 61.289150,20.730133 58.659298,21.246037 
	C56.874367,21.332050 55.863865,21.267227 54.853359,21.202404 
	C58.012726,17.178894 61.172092,13.155386 64.665726,9.065939 
	C65.000000,12.361287 65.000000,15.722575 65.000000,19.541931 
z"/>
<path fill="#1293C7" opacity="1.000000" stroke="none" 
	d="
M6.976541,46.115402 
	C5.227673,47.732861 3.478804,49.350323 1.364968,50.983894 
	C1.000000,47.638714 1.000000,44.277424 1.355453,40.502209 
	C3.339399,40.413078 4.967893,40.737873 6.686280,41.449749 
	C6.878583,42.891033 6.980992,43.945244 7.009546,45.273926 
	C6.949308,45.737400 6.962925,45.926403 6.976541,46.115402 
z"/>
<path fill="#1D6294" opacity="1.000000" stroke="none" 
	d="
M56.043503,38.001930 
	C58.803383,36.041275 61.563263,34.080620 64.661575,32.059982 
	C65.000000,34.041668 65.000000,36.083332 65.000000,38.562500 
	C63.088333,40.186962 61.176666,41.373924 58.857334,42.642128 
	C57.638027,41.467861 56.826385,40.212353 56.012100,38.717903 
	C56.009460,38.478966 56.043503,38.001930 56.043503,38.001930 
z"/>
<path fill="#3BAADB" opacity="1.000000" stroke="none" 
	d="
M6.596385,41.062672 
	C4.967893,40.737873 3.339399,40.413078 1.355453,40.044140 
	C1.000000,38.611111 1.000000,37.222221 1.261129,35.194725 
	C3.217206,34.044006 4.912154,33.531895 6.688540,33.460510 
	C6.712113,36.288383 6.654249,38.675526 6.596385,41.062672 
z"/>
<path fill="#6DB6E2" opacity="1.000000" stroke="none" 
	d="
M1.000000,21.428463 
	C2.685419,21.330614 4.370838,21.661228 6.433247,22.422333 
	C6.742596,24.583237 6.674956,26.313648 6.248449,28.034435 
	C4.259721,27.683208 2.629861,27.341604 1.000000,27.000000 
	C1.000000,25.285643 1.000000,23.571283 1.000000,21.428463 
z"/>
<path fill="#4FADDD" opacity="1.000000" stroke="none" 
	d="
M1.000000,27.444164 
	C2.629861,27.341604 4.259721,27.683208 6.323434,28.445515 
	C6.707225,30.250738 6.657164,31.635262 6.607102,33.019783 
	C4.912154,33.531895 3.217206,34.044006 1.261129,34.778061 
	C1.000000,32.629440 1.000000,30.258884 1.000000,27.444164 
z"/>
<path fill="#CDE9F9" opacity="1.000000" stroke="none" 
	d="
M54.543938,21.320599 
	C55.863865,21.267227 56.874367,21.332050 58.254002,21.306324 
	C57.648281,23.688328 56.673431,26.160879 55.079563,28.884693 
	C52.537132,30.358555 50.697628,31.753407 48.661755,32.745121 
	C47.228294,33.443390 45.527939,33.593735 43.899250,33.675331 
	C43.210789,32.285435 42.569824,31.208931 41.902679,29.801208 
	C40.936695,27.838552 39.996895,26.207119 39.057095,24.575684 
	C38.725296,23.758917 38.393497,22.942148 38.069302,21.680527 
	C40.065140,21.263128 42.053379,21.290586 44.467167,21.307699 
	C45.893406,23.466167 46.894093,25.634981 48.132290,28.318558 
	C50.222782,25.961699 52.228649,23.700245 54.543938,21.320599 
z"/>
<path fill="#E9F4FD" opacity="1.000000" stroke="none" 
	d="
M19.417700,46.062763 
	C18.949841,44.969120 18.897896,43.906433 18.858692,42.009033 
	C18.939043,38.780270 19.006657,36.386208 19.394903,34.043381 
	C20.753891,34.386536 21.792242,34.678463 23.037762,35.199154 
	C24.012035,35.675087 24.779140,35.922260 25.583347,36.527691 
	C25.720587,37.597569 25.820724,38.309193 25.920864,39.020813 
	C25.819069,40.692493 25.717278,42.364170 25.313049,44.515747 
	C24.674114,45.331341 24.337616,45.667042 24.001118,46.002739 
	C22.611948,46.033066 21.222782,46.063389 19.417700,46.062763 
z"/>
<path fill="#39A9D9" opacity="1.000000" stroke="none" 
	d="
M26.264393,38.952393 
	C25.820724,38.309193 25.720587,37.597569 25.698479,36.100044 
	C25.707815,34.146072 25.639122,32.978004 25.604773,31.418692 
	C25.796303,28.395451 25.186878,25.268536 29.545109,25.578373 
	C30.165237,27.610273 30.616079,29.303190 30.990463,31.407646 
	C30.971403,33.209908 31.028801,34.600628 31.014036,36.338036 
	C30.854954,37.146339 30.768034,37.607952 30.681114,38.069569 
	C29.323383,38.341038 27.965654,38.612507 26.264393,38.952393 
z"/>
<path fill="#D8EDFA" opacity="1.000000" stroke="none" 
	d="
M30.739792,38.434406 
	C30.768034,37.607952 30.854954,37.146339 31.373058,36.324409 
	C33.650837,35.639450 35.497433,35.314800 37.472664,35.390785 
	C37.560722,37.190319 37.520142,38.589222 37.122025,40.013008 
	C34.855423,40.357525 32.946354,40.677155 31.037289,40.996784 
	C30.957682,40.264271 30.878075,39.531757 30.739792,38.434406 
z"/>
<path fill="#CAE7F9" opacity="1.000000" stroke="none" 
	d="
M30.945866,41.408279 
	C32.946354,40.677155 34.855423,40.357525 37.192722,40.391705 
	C37.601612,41.512604 37.582264,42.279697 37.402260,43.303288 
	C37.155582,44.360630 37.069569,45.161472 36.983559,45.962315 
	C36.542274,46.037609 36.100990,46.112904 35.338768,46.286976 
	C33.918758,46.295925 32.819683,46.206097 31.307865,46.073467 
	C30.881561,44.627033 30.868002,43.223404 30.945866,41.408279 
z"/>
<path fill="#B0DBF1" opacity="1.000000" stroke="none" 
	d="
M24.295471,46.062035 
	C24.337616,45.667042 24.674114,45.331341 25.240398,44.927620 
	C25.176729,45.280174 24.883276,45.700752 24.295471,46.062035 
z"/>
<path fill="#F8FCFE" opacity="1.000000" stroke="none" 
	d="
M29.375822,25.239391 
	C25.186878,25.268536 25.796303,28.395451 25.298950,31.504238 
	C24.249388,32.977478 23.539991,33.973934 22.830595,34.970390 
	C21.792242,34.678463 20.753891,34.386536 19.297901,33.813576 
	C18.880264,33.532547 18.700340,33.067253 18.792599,32.657921 
	C18.052689,29.982382 16.843166,25.689085 16.446611,25.762905 
	C12.392527,26.517601 14.160649,29.965496 13.928543,32.527805 
	C13.914325,32.684765 13.994999,32.850315 13.965052,33.458382 
	C13.944045,36.614895 13.989508,39.324902 14.034970,42.034908 
	C14.323479,45.979504 12.000494,46.582771 8.296181,45.833740 
	C7.573344,45.331238 7.347234,45.142723 7.083402,44.999451 
	C6.980992,43.945244 6.878583,42.891033 6.686280,41.449749 
	C6.654249,38.675526 6.712113,36.288383 6.688540,33.460510 
	C6.657164,31.635262 6.707225,30.250738 6.682301,28.455137 
	C6.674956,26.313648 6.742596,24.583237 6.804776,22.418167 
	C8.915549,21.951389 11.031782,21.919270 13.599859,21.877607 
	C16.417345,21.623522 18.782988,21.378979 21.559402,21.134594 
	C23.649208,22.520176 25.210472,24.705091 27.756208,21.751190 
	C29.411322,21.671818 30.809752,21.790503 32.615173,21.790459 
	C33.995941,22.202557 34.969711,22.733385 35.629021,23.686882 
	C33.334980,24.486162 31.355400,24.862778 29.375822,25.239391 
z"/>
<path fill="#32A7DA" opacity="1.000000" stroke="none" 
	d="
M14.425070,42.027794 
	C13.989508,39.324902 13.944045,36.614895 14.354634,33.450966 
	C16.107237,33.020451 17.403790,33.043850 18.700340,33.067253 
	C18.700340,33.067253 18.880264,33.532547 18.977266,33.762348 
	C19.006657,36.386208 18.939043,38.780270 18.790895,41.616013 
	C17.411963,42.045353 16.113567,42.033012 14.425070,42.027794 
z"/>
<path fill="#E1F1FB" opacity="1.000000" stroke="none" 
	d="
M7.009546,45.273926 
	C7.347234,45.142723 7.573344,45.331238 7.880985,45.752182 
	C7.835351,46.002132 7.670464,46.064899 7.241059,46.121536 
	C6.962925,45.926403 6.949308,45.737400 7.009546,45.273926 
z"/>
<path fill="#79C5EB" opacity="1.000000" stroke="none" 
	d="
M56.014744,38.956841 
	C56.826385,40.212353 57.638027,41.467861 58.685326,42.948460 
	C59.985283,47.516998 56.547249,45.741802 54.398895,46.300472 
	C53.258816,45.914318 52.491940,45.454147 51.480938,44.752365 
	C51.189796,44.164822 51.142780,43.818886 51.431328,43.155300 
	C53.182846,41.544048 54.598797,40.250446 56.014744,38.956841 
z"/>
<path fill="#C2E3F7" opacity="1.000000" stroke="none" 
	d="
M43.946751,33.988724 
	C45.527939,33.593735 47.228294,33.443390 48.661755,32.745121 
	C50.697628,31.753407 52.537132,30.358555 54.823032,29.104584 
	C54.576084,30.234722 53.966648,31.396235 53.476318,32.830345 
	C53.595425,33.102940 53.570610,33.586052 53.684898,34.022701 
	C53.774536,34.627193 53.749886,34.795033 53.394527,34.981453 
	C51.357891,36.096382 49.651966,37.192738 47.946041,38.289093 
	C47.477531,39.043892 47.009022,39.798691 45.964352,40.837372 
	C43.911198,42.718525 42.434200,44.315796 40.957203,45.913067 
	C40.957203,45.913067 40.984924,46.138935 41.027222,46.244553 
	C40.613899,46.258022 40.158272,46.165871 39.356747,45.624866 
	C38.989784,44.418453 38.968719,43.660896 39.032055,42.569244 
	C40.726551,39.486343 42.336651,36.737534 43.946751,33.988724 
z"/>
<path fill="#A5D6F1" opacity="1.000000" stroke="none" 
	d="
M48.231415,38.519775 
	C49.651966,37.192738 51.357891,36.096382 53.519661,35.272911 
	C54.326286,36.005470 54.677067,36.465149 55.027851,36.924824 
	C55.191505,37.217869 55.392937,37.482117 55.837830,37.859745 
	C56.043503,38.001930 56.009460,38.478966 56.012100,38.717903 
	C54.598797,40.250446 53.182846,41.544048 51.447113,42.892532 
	C50.257149,41.548431 49.386971,40.149445 48.231415,38.519775 
z"/>
<path fill="#A5D6F1" opacity="1.000000" stroke="none" 
	d="
M41.322910,46.004150 
	C42.434200,44.315796 43.911198,42.718525 45.729279,41.073532 
	C44.609776,42.715622 43.149197,44.405426 41.322910,46.004150 
z"/>
<path fill="#E3F1FC" opacity="1.000000" stroke="none" 
	d="
M10.912091,9.086926 
	C8.659337,9.582605 6.555302,10.025768 4.557045,9.736985 
	C4.053621,9.664231 3.188015,6.697655 3.716094,6.026388 
	C4.772148,4.683984 6.765308,3.105854 8.212557,3.247648 
	C11.181813,3.538559 12.243695,5.805555 10.912091,9.086926 
z"/>
<path fill="#ECF6FD" opacity="1.000000" stroke="none" 
	d="
M29.545109,25.578373 
	C31.355400,24.862778 33.334980,24.486162 35.728706,24.031445 
	C36.142860,23.953341 36.532360,24.020197 36.724640,24.534565 
	C36.889568,27.026770 36.862213,29.004602 36.427502,30.987177 
	C34.369068,30.993313 32.717995,30.994711 31.066921,30.996107 
	C30.616079,29.303190 30.165237,27.610273 29.545109,25.578373 
z"/>
<path fill="#A5D6F1" opacity="1.000000" stroke="none" 
	d="
M36.834862,30.982437 
	C36.862213,29.004602 36.889568,27.026770 36.899277,24.627022 
	C37.242580,24.274723 37.603531,24.344339 38.510788,24.494820 
	C39.996895,26.207119 40.936695,27.838552 41.549828,29.739805 
	C40.084377,30.667477 38.945591,31.325327 37.597969,31.869659 
	C37.173100,31.520645 36.988342,31.262743 36.834862,30.982437 
z"/>
<path fill="#A5D6F1" opacity="1.000000" stroke="none" 
	d="
M38.947655,42.903339 
	C38.968719,43.660896 38.989784,44.418453 39.013897,45.555031 
	C38.562847,46.004101 38.108746,46.074142 37.319099,46.053253 
	C37.069569,45.161472 37.155582,44.360630 37.747833,43.256092 
	C38.485264,42.936043 38.716457,42.919693 38.947655,42.903339 
z"/>
<path fill="#1774A6" opacity="1.000000" stroke="none" 
	d="
M55.010223,36.592590 
	C54.677067,36.465149 54.326286,36.005470 53.850372,35.254333 
	C53.749886,34.795033 53.774536,34.627193 53.840469,34.207905 
	C54.252029,34.724426 54.622311,35.492393 55.010223,36.592590 
z"/>
<path fill="#1683B4" opacity="1.000000" stroke="none" 
	d="
M39.032051,42.569244 
	C38.716457,42.919693 38.485264,42.936043 37.908493,42.999592 
	C37.582264,42.279697 37.601612,41.512604 37.550259,40.366821 
	C37.520142,38.589222 37.560722,37.190319 37.595726,35.028603 
	C37.662365,33.504917 37.734585,32.744049 37.806805,31.983179 
	C38.945591,31.325327 40.084377,30.667477 41.576012,30.071026 
	C42.569824,31.208931 43.210789,32.285435 43.899250,33.675331 
	C42.336651,36.737534 40.726551,39.486343 39.032051,42.569244 
z"/>
<path fill="#B0DBF1" opacity="1.000000" stroke="none" 
	d="
M23.037762,35.199154 
	C23.539991,33.973934 24.249388,32.977478 25.264606,31.895477 
	C25.639122,32.978004 25.707815,34.146072 25.661377,35.741791 
	C24.779140,35.922260 24.012035,35.675087 23.037762,35.199154 
z"/>
<path fill="#E5F2FC" opacity="1.000000" stroke="none" 
	d="
M37.597969,31.869661 
	C37.734585,32.744049 37.662365,33.504917 37.467087,34.627968 
	C35.497433,35.314800 33.650837,35.639450 31.445221,35.977722 
	C31.028801,34.600628 30.971403,33.209908 30.990463,31.407646 
	C32.717995,30.994711 34.369068,30.993313 36.427498,30.987177 
	C36.988342,31.262743 37.173100,31.520645 37.597969,31.869661 
z"/>
<path fill="#5AB3DF" opacity="1.000000" stroke="none" 
	d="
M18.792599,32.657921 
	C17.403790,33.043850 16.107237,33.020451 14.421104,33.004459 
	C13.994999,32.850315 13.914325,32.684765 13.928543,32.527805 
	C14.160649,29.965496 12.392527,26.517601 16.446611,25.762905 
	C16.843166,25.689085 18.052689,29.982382 18.792599,32.657921 
z"/>
</svg>